<svg width="140" height="113" viewBox="0 0 140 113" fill="none" xmlns="http://www.w3.org/2000/svg">
<path d="M113.135 24.4879V38.2295C113.135 39.3673 112.216 40.2908 111.084 40.2908H95.0225C93.8904 40.2908 92.9717 39.3673 92.9717 38.2295V24.4879C92.9717 23.3474 93.8904 22.4267 95.0225 22.4267H111.084C112.216 22.4267 113.135 23.3474 113.135 24.4879Z" fill="#555760"/>
<path d="M9.78962 22.4252H2.05078C0.918204 22.4252 0 23.3478 0 24.4865V38.2281C0 39.3667 0.918204 40.2893 2.05078 40.2893H9.78962C10.9222 40.2893 11.8404 39.3667 11.8404 38.2281V24.4865C11.8404 23.3481 10.9222 22.4252 9.78962 22.4252Z" fill="#555760"/>
<path d="M140 24.4878V38.2294C140 39.3672 139.081 40.2906 137.949 40.2906H130.211C129.079 40.2906 128.16 39.3672 128.16 38.2294V24.4878C128.16 23.3473 129.079 22.4266 130.211 22.4266H137.949C139.081 22.4266 140 23.3473 140 24.4878Z" fill="#555760"/>
<path d="M140 31.5591V38.2293C140 39.3671 139.081 40.2905 137.949 40.2905H130.211C129.079 40.2905 128.16 39.3671 128.16 38.2293V31.5591C128.16 32.6969 129.079 33.6204 130.211 33.6204H137.949C139.081 33.6204 140 32.6969 140 31.5591Z" fill="#362428"/>
<path d="M11.8399 31.5578V38.228C11.8399 39.3658 10.9211 40.2892 9.78907 40.2892H2.05078C0.918751 40.2892 0 39.3658 0 38.228V31.5578C0 32.6956 0.918751 33.619 2.05078 33.619H9.78907C10.9211 33.619 11.8399 32.6956 11.8399 31.5578Z" fill="#362428"/>
<path d="M113.135 33.6211V38.23C113.135 39.3678 112.216 40.2913 111.084 40.2913H95.0225C93.8904 40.2913 92.9717 39.3678 92.9717 38.23V33.6211H113.135Z" fill="#362428"/>
<path d="M18.6708 13.5499V49.1653C18.6708 50.6824 18.0583 52.0538 17.0685 53.0487C16.0814 54.0436 14.7142 54.6564 13.2048 54.6564C12.2095 54.6564 11.2771 54.3899 10.4731 53.9199C8.83799 52.9745 7.73877 51.1991 7.73877 49.1653V13.5499C7.73877 11.5161 8.83799 9.74069 10.4731 8.79527C11.2771 8.3253 12.2095 8.05872 13.2048 8.05872C16.2235 8.05872 18.6708 10.5157 18.6708 13.5499Z" fill="#20C997"/>
<path d="M18.6708 13.5496V49.1651C18.6708 50.6821 18.0583 52.0536 17.0685 53.0484C16.0814 54.0433 14.7142 54.6562 13.2048 54.6562C12.2095 54.6562 11.2771 54.3896 10.4731 53.9197C10.8888 53.6806 11.2688 53.3865 11.6052 53.0484C12.5923 52.0536 13.2048 50.6821 13.2048 49.1651V13.5496C13.2048 11.5159 12.1056 9.74319 10.4731 8.79502C11.2771 8.32506 12.2095 8.05847 13.2048 8.05847C16.2235 8.05847 18.6708 10.5155 18.6708 13.5496Z" fill="#63E6BE"/>
<path d="M132.276 13.5489V49.1644C132.276 50.6815 131.663 52.0529 130.673 53.0478C129.686 54.0427 128.319 54.6555 126.81 54.6555C125.814 54.6555 124.882 54.389 124.078 53.919C122.443 52.9736 121.344 51.1982 121.344 49.1644V13.5489C121.344 11.5152 122.443 9.73977 124.078 8.79435C124.882 8.32439 125.814 8.0578 126.81 8.0578C129.829 8.0578 132.276 10.5148 132.276 13.5489Z" fill="#20C997"/>
<path d="M132.276 13.5489V49.1644C132.276 50.6815 131.663 52.0529 130.673 53.0478C129.686 54.0427 128.319 54.6555 126.81 54.6555C125.814 54.6555 124.882 54.389 124.078 53.919C124.494 53.6799 124.874 53.3858 125.21 53.0478C126.197 52.0529 126.81 50.6815 126.81 49.1644V13.5489C126.81 11.5152 125.711 9.74252 124.078 8.79435C124.882 8.32439 125.814 8.0578 126.81 8.0578C129.829 8.0578 132.276 10.5148 132.276 13.5489Z" fill="#63E6BE"/>
<path d="M97.0729 24.3065V38.2295C97.0729 38.6829 96.9225 39.1254 96.6463 39.4855L85.9221 53.4744L89.1104 87.0121C89.1651 87.5893 88.9737 88.1637 88.5854 88.5952C88.1971 89.0239 87.6475 89.2685 87.0678 89.2685H52.9318C52.3522 89.2685 51.8025 89.0239 51.4143 88.5952C51.026 88.1637 50.8346 87.5893 50.8893 87.0121L51.4717 80.8944L51.5756 79.795L54.0447 53.7987L43.7389 45.8011C43.2357 45.4108 42.9404 44.8089 42.9404 44.1713V16.3666C42.9404 15.2288 43.8592 14.3054 44.9912 14.3054H87.117C92.6049 14.3054 97.0729 18.7906 97.0729 24.3065Z" fill="#FFD3C0"/>
<path d="M97.0727 24.3065V38.2295C97.0727 38.6829 96.9223 39.1254 96.6461 39.4855L85.9219 53.4744L89.1102 87.0121C89.1649 87.5893 88.9735 88.1637 88.5852 88.5952C88.1969 89.0239 87.6473 89.2685 87.0676 89.2685H52.9316C52.352 89.2685 51.8023 89.0239 51.4141 88.5952C51.0258 88.1637 50.8344 87.5893 50.8891 87.0121L51.4715 80.8944L51.5754 79.795H79.6848C80.2645 79.795 80.8141 79.5504 81.2024 79.1217C81.5907 78.6902 81.7821 78.1158 81.7274 77.5387L79.6328 53.3452L91.4508 37.7073C91.727 37.3473 91.8774 36.9048 91.8774 36.4486V22.5283C91.8774 19.1232 88.536 16.111 85.941 14.3054H87.1168C92.6047 14.3054 97.0727 18.7906 97.0727 24.3065Z" fill="#FFB9A1"/>
<path d="M85.8316 24.4879V31.9084C85.8316 32.3069 85.7167 32.6999 85.498 33.0324L85.1152 33.6206L81.3937 39.3536C81.0164 39.939 80.3683 40.2908 79.6765 40.2908H28.9155C27.7835 40.2908 26.8647 39.3673 26.8647 38.2295V24.4879C26.8647 23.9355 27.0835 23.4078 27.4745 23.0203C27.8628 22.6328 28.396 22.4184 28.9401 22.4267H83.8027C84.9265 22.4377 85.8316 23.3584 85.8316 24.4879Z" fill="#555760"/>
<path d="M26.8647 33.6205H85.1152L81.3937 39.3535C81.0164 39.9389 80.3683 40.2906 79.6765 40.2906H28.9155C27.7835 40.2906 26.8647 39.3672 26.8647 38.2294V33.6205Z" fill="#362428"/>
<path d="M30.9669 6.67877V56.0358C30.9669 59.4437 28.2107 62.214 24.82 62.214C23.7017 62.214 22.6517 61.9117 21.7466 61.3813C19.9091 60.3149 18.6704 58.3197 18.6704 56.0358V6.67877C18.6704 4.39492 19.9091 2.39964 21.7466 1.33329C22.6517 0.802864 23.7017 0.500549 24.82 0.500549C28.2107 0.500549 30.9669 3.27085 30.9669 6.67877Z" fill="#0CA678"/>
<path d="M30.9669 6.67883V56.0359C30.9669 59.4438 28.2106 62.2141 24.82 62.2141C23.7017 62.2141 22.6517 61.9118 21.7466 61.3813C23.5813 60.315 24.82 58.317 24.82 56.0359V6.67883C24.82 4.39772 23.5813 2.3997 21.7466 1.33335C22.6517 0.802925 23.7017 0.50061 24.82 0.50061C28.2106 0.50061 30.9669 3.27091 30.9669 6.67883Z" fill="#20C997"/>
<path d="M121.33 6.67822V56.0353C121.33 59.4432 118.573 62.2135 115.183 62.2135C114.064 62.2135 113.014 61.9112 112.109 61.3807C110.272 60.3144 109.033 58.3191 109.033 56.0353V6.67822C109.033 4.39437 110.272 2.39909 112.109 1.33274C113.014 0.802316 114.064 0.5 115.183 0.5C118.573 0.5 121.33 3.27031 121.33 6.67822Z" fill="#20C997"/>
<path d="M121.33 6.67822V56.0353C121.33 59.4432 118.574 62.2135 115.183 62.2135C114.065 62.2135 113.015 61.9112 112.11 61.3807C113.945 60.3144 115.183 58.3164 115.183 56.0353V6.67822C115.183 4.39712 113.945 2.39909 112.11 1.33274C113.015 0.802316 114.065 0.5 115.183 0.5C118.574 0.5 121.33 3.27031 121.33 6.67822Z" fill="#0CA678"/>
<path d="M48.3027 8.90356C45.3416 8.90356 42.9414 11.316 42.9414 14.2922V26.1696C42.9414 29.1457 45.3416 31.5582 48.3027 31.5582C51.2638 31.5582 53.664 29.1457 53.664 26.1696V14.2922C53.664 11.3163 51.2635 8.90356 48.3027 8.90356Z" fill="#FFD3C0"/>
<path d="M59.0249 8.90356C56.0638 8.90356 53.6636 11.316 53.6636 14.2922V26.1696C53.6636 29.1457 56.0638 31.5582 59.0249 31.5582C61.9859 31.5582 64.3862 29.1457 64.3862 26.1696V14.2922C64.3862 11.3163 61.9859 8.90356 59.0249 8.90356Z" fill="#FFB9A1"/>
<path d="M69.7475 8.90356C66.7865 8.90356 64.3862 11.316 64.3862 14.2922V26.1696C64.3862 29.1457 66.7865 31.5582 69.7475 31.5582C72.7086 31.5582 75.1088 29.1457 75.1088 26.1696V14.2922C75.1088 11.3163 72.7086 8.90356 69.7475 8.90356Z" fill="#FFD3C0"/>
<path d="M80.4707 8.90356C77.5096 8.90356 75.1094 11.316 75.1094 14.2922V26.1696C75.1094 29.1457 77.5096 31.5582 80.4707 31.5582C83.4317 31.5582 85.832 29.1457 85.832 26.1696V14.2922C85.8317 11.3163 83.4315 8.90356 80.4707 8.90356Z" fill="#FFB9A1"/>
<path d="M97.6502 111.807C97.2592 112.247 96.7014 112.5 96.1163 112.5H43.8842C43.299 112.5 42.7412 112.247 42.3502 111.807C41.9619 111.368 41.7787 110.782 41.8471 110.197L42.4185 105.354L44.5842 86.9654C44.7045 85.9293 45.5795 85.146 46.6213 85.146H93.3791C94.4209 85.146 95.2959 85.9293 95.4163 86.9654L98.1534 110.197C98.2217 110.782 98.0385 111.368 97.6502 111.807Z" fill="#EEF6FF"/>
<path d="M97.6502 111.807C97.2592 112.247 96.7014 112.5 96.1163 112.5H43.8842C43.299 112.5 42.7412 112.247 42.3502 111.807C41.9619 111.368 41.7787 110.782 41.8471 110.197L42.4185 105.354H87.9213C88.5065 105.354 89.0643 105.102 89.4526 104.662C89.8436 104.222 90.0241 103.637 89.9557 103.051L88.1483 86.9654C88.0252 85.9293 87.1502 85.146 86.1112 85.146H93.3791C94.4209 85.146 95.2959 85.9293 95.4163 86.9654L98.1534 110.197C98.2217 110.782 98.0385 111.368 97.6502 111.807Z" fill="#DAE6EF"/>
</svg>
