<svg width="59" height="80" viewBox="0 0 59 80" fill="none" xmlns="http://www.w3.org/2000/svg">
<path d="M43.327 33.5322V58.4572H15.14V33.5322H3.86523L29.2335 3.04053L54.6018 33.5322H43.327Z" fill="#20C997"/>
<path d="M55.6392 36.3211C54.7902 36.3211 53.95 35.9714 53.3703 35.2944L29.2812 7.16071L5.195 35.2944C4.16738 36.4945 2.32878 36.6651 1.07573 35.6916C-0.177327 34.7097 -0.361767 32.9502 0.659999 31.7557L27.0122 0.975602C28.1277 -0.325201 30.4318 -0.325201 31.5472 0.975602L57.9023 31.7557C58.927 32.9502 58.7397 34.7125 57.4866 35.6916C56.945 36.1141 56.2921 36.3211 55.6392 36.3211Z" fill="#20C997"/>
<path d="M14.6421 61.4982C13.023 61.4982 11.7144 60.2478 11.7144 58.7008V33.524C11.7144 31.977 13.023 30.7266 14.6421 30.7266C16.2611 30.7266 17.5697 31.977 17.5697 33.524V58.7008C17.5697 60.2478 16.2611 61.4982 14.6421 61.4982Z" fill="#20C997"/>
<path d="M43.919 61.4979H14.6421C13.023 61.4979 11.7144 60.2475 11.7144 58.7005C11.7144 57.1535 13.023 55.9031 14.6421 55.9031H43.919C45.538 55.9031 46.8467 57.1535 46.8467 58.7005C46.8467 60.2475 45.538 61.4979 43.919 61.4979Z" fill="#20C997"/>
<path d="M43.9199 61.4982C42.3009 61.4982 40.9922 60.2478 40.9922 58.7008V33.524C40.9922 31.977 42.3009 30.7266 43.9199 30.7266C45.5389 30.7266 46.8476 31.977 46.8476 33.524V58.7008C46.8476 60.2478 45.5389 61.4982 43.9199 61.4982Z" fill="#20C997"/>
<path d="M14.6434 36.3214H2.92965C1.31063 36.3214 0.00195312 35.071 0.00195312 33.524C0.00195312 31.977 1.31063 30.7266 2.92965 30.7266H14.6434C16.2624 30.7266 17.5711 31.977 17.5711 33.524C17.5711 35.071 16.2624 36.3214 14.6434 36.3214Z" fill="#20C997"/>
<path d="M55.6365 36.3214H43.9199C42.3009 36.3214 40.9922 35.071 40.9922 33.524C40.9922 31.977 42.3009 30.7266 43.9199 30.7266H55.6365C57.2555 30.7266 58.5642 31.977 58.5642 33.524C58.5642 35.071 57.2555 36.3214 55.6365 36.3214Z" fill="#20C997"/>
<path d="M34.8718 39.2014H23.597C22.0383 39.2014 20.7783 37.9222 20.7783 36.3397C20.7783 34.7572 22.0383 33.478 23.597 33.478H34.8718C36.4305 33.478 37.6905 34.7572 37.6905 36.3397C37.6905 37.9222 36.4305 39.2014 34.8718 39.2014Z" fill="#0CA678"/>
<path d="M29.2337 44.9222C27.675 44.9222 26.415 43.643 26.415 42.0605V30.6194C26.415 29.0369 27.675 27.7577 29.2337 27.7577C30.7925 27.7577 32.0524 29.0369 32.0524 30.6194V42.0605C32.0524 43.643 30.7925 44.9222 29.2337 44.9222Z" fill="#0CA678"/>
<rect x="11.6938" y="65.1582" width="35.1773" height="5.59071" rx="2.79536" fill="#63E6BE"/>
<rect x="11.6938" y="74.4093" width="35.1773" height="5.59071" rx="2.79536" fill="#63E6BE"/>
</svg>
